<svg xmlns="http://www.w3.org/2000/svg" xmlns:xlink="http://www.w3.org/1999/xlink" version="1.1" id="Isolation_Mode" x="0px" y="0px" viewBox="0 0 363.1 125.3" style="enable-background:new 0 0 363.1 125.3;" xml:space="preserve" class="svg-logo">
<path d="M354.1,16c2.5,0,4.7,1,6.3,2.6l0,0c1.6,1.6,2.6,3.9,2.6,6.3s-1,4.7-2.6,6.3s-3.9,2.6-6.3,2.6s-4.7-1-6.3-2.6 s-2.6-3.9-2.6-6.3s1-4.7,2.6-6.3C349.4,17,351.6,16,354.1,16L354.1,16z M359.5,19.6L359.5,19.6c-1.4-1.4-3.3-2.2-5.4-2.2 s-4,0.8-5.4,2.2c-1.4,1.4-2.2,3.3-2.2,5.4s0.9,4,2.2,5.4s3.3,2.2,5.4,2.2s4-0.8,5.4-2.2c1.4-1.4,2.2-3.3,2.2-5.4 C361.7,22.9,360.9,21,359.5,19.6L359.5,19.6z M350.6,29.9v-9.3h4.1c0.8,0,1.5,0.1,1.9,0.3c0.4,0.2,0.8,0.5,1,0.9s0.4,0.9,0.4,1.4 c0,0.7-0.2,1.2-0.6,1.7c-0.4,0.4-1.1,0.7-2,0.9c0.3,0.2,0.6,0.3,0.8,0.5c0.4,0.3,0.7,0.8,1,1.2l1.6,2.5h-1.5L356,28 c-0.4-0.6-0.7-1-0.9-1.3s-0.4-0.5-0.6-0.6c-0.2-0.1-0.4-0.2-0.6-0.3c-0.1,0-0.4,0-0.7,0h-1.4v4.1L350.6,29.9L350.6,29.9z M351.8,24.7h2.7c0.6,0,1-0.1,1.3-0.2c0.3-0.1,0.6-0.3,0.7-0.6c0.2-0.3,0.3-0.5,0.3-0.8c0-0.4-0.2-0.8-0.5-1.1 c-0.3-0.3-0.8-0.4-1.5-0.4h-3L351.8,24.7L351.8,24.7z M125.8,77.8c-2.6,4.9-6.1,8.8-10.5,11.7c-0.5,0.3-1,0.6-1.5,0.9 c-8.7,22.9-29.3,31.7-53.5,32c-0.4,0-7.9,0-8.3,0c-7.9,0-12.9-1.1-15-3.3c-2.1-2.2-3.1-7.7-3.1-16.5V17.2c0-6.1,1-10.2,2.9-12.1 c2-1.9,5.9-2.8,12-2.8h7.6c28.1,0.1,48,10.3,56.8,31.6c5.2,3.1,9.2,7.2,12.1,12.2c1,1.7,1.8,3.5,2.4,5.3c-1.3-7.2-3.7-14-7.5-20.5 c-5.6-9.8-13.5-17.7-23.6-23.7c-4-2.3-9.1-4-15.4-5.3C75,0.6,68,0,60.3,0H0v2.4c10.1,0.2,16.7,1.6,19.8,4.4 c3.1,2.7,4.6,8.4,4.6,17.2v77c0,8.8-1.6,14.5-4.7,17.3c-3.1,2.7-9.7,4.1-19.8,4.3v2.3h57.7c9.7,0,18.1-0.8,25.1-2.4 c7.1-1.6,13.1-4.1,18-7.4c8.4-5.7,15.2-13.3,20.3-22.8c3.3-6.2,5.6-12.6,6.7-19.2C127.3,74.6,126.6,76.2,125.8,77.8L125.8,77.8z M61.2,29.7L61.2,29.7L61.2,29.7c0-2.1-1.7-3.8-3.8-3.8c-2.1,0-3.8,1.7-3.8,3.8l0,0h0l0,0c0,0.3,0,0.6,0.1,0.8l3,23.1h1.3l3-23.1 C61.1,30.3,61.2,30,61.2,29.7L61.2,29.7L61.2,29.7z M84.8,82.4c0,4.4,0.5,7.1,1.6,8.2c1,1.1,3.5,1.7,7.5,1.7 c8.7,0,14.9-2.3,18.7-6.9c3.8-4.6,5.6-12.2,5.6-22.8c0-11-2-18.7-5.9-23.3c-3.9-4.6-10.6-6.9-20-6.9c-3,0-5,0.5-6,1.4 c-1,0.9-1.5,3-1.5,6L84.8,82.4L84.8,82.4z M64.3,93.6v-1.3c5-0.1,8.3-0.8,9.9-2.1c1.6-1.4,2.3-4.2,2.3-8.6V43.2 c0-4.4-0.8-7.2-2.3-8.6c-1.6-1.4-4.9-2.1-9.9-2.2v-1.3h30.2c3.9,0,7.4,0.3,10.5,0.9c3.1,0.6,5.7,1.5,7.7,2.7c5,3,9,7,11.8,11.9 c2.8,4.9,4.3,10.2,4.3,15.9c0,5.1-1.3,10-3.8,14.8c-2.5,4.7-5.9,8.5-10.2,11.4c-2.5,1.7-5.5,2.9-9,3.7c-3.5,0.8-7.7,1.2-12.6,1.2 L64.3,93.6L64.3,93.6z M177.5,31.1v23.4h-1.4c-1.3-7.9-4-13.5-7.9-16.9c-4-3.4-9.9-5.2-17.8-5.2c-3,0-5,0.6-6,1.7 c-1,1.1-1.5,3.6-1.5,7.5v19.5h1.3c5.5,0,9.5-1.2,12-3.7c2.5-2.5,4-6.6,4.3-12.4h1.3v33.7h-1.3c-0.5-5.9-2-10.1-4.4-12.6 c-2.4-2.5-6.1-3.7-11.3-3.7c-0.2,0-0.5,0-1,0.1c-0.4,0-0.8,0.1-1,0.1v19.6c0,4.6,0.5,7.5,1.6,8.5c1,1,3.3,1.6,6.8,1.6 c8.2,0,14.4-2.1,18.6-6.1s6.8-10.6,7.7-19.4h1.3v27h-56.5v-1.3c5-0.1,8.3-0.8,9.9-2.1c1.6-1.4,2.4-4.2,2.4-8.6V43.2 c0-4.4-0.8-7.2-2.3-8.6c-1.5-1.3-4.9-2.1-9.9-2.2v-1.3L177.5,31.1L177.5,31.1z M234.7,70.5c-0.5,8.1-2.8,14.3-6.8,18.7 c-4,4.4-9.5,6.6-16.3,6.6c-3.6,0-7-0.7-10-2.1c-3-1.4-5.9-3.5-8.6-6.5c-3.1-3.4-5.6-7.2-7.4-11.5c-1.8-4.3-2.6-8.7-2.6-13.3 c0-4.6,0.9-9.1,2.7-13.5c1.8-4.4,4.4-8.3,7.8-11.8c2.7-2.7,5.4-4.8,8.2-6.1c2.8-1.3,5.7-2,8.8-2c2.2,0,4.5,0.5,6.8,1.5 c2.3,1,4.5,2.4,6.6,4.2c0.3,0.2,0.7,0.6,1.2,1.1c1.4,1.3,2.5,1.9,3.2,1.9c0.9,0,1.7-0.7,2.4-2.2c0.7-1.5,1.3-3.7,1.8-6.7h1.7v27.9 h-1.4c-1.5-8.3-4.4-14.8-8.5-19.5c-4.1-4.7-9.1-7-14.9-7c-5.4,0-9.4,2.5-12,7.5c-2.6,5-3.9,12.7-3.9,23.2c0,11.7,1.5,20.2,4.4,25.4 c3,5.3,7.7,7.9,14.1,7.9c6.2,0,11.2-2.1,15-6.4c3.8-4.2,5.9-10,6.2-17.5L234.7,70.5L234.7,70.5z M266.2,30.3c-6.4,0-11,2.5-13.8,7.4 c-2.8,4.9-4.2,13.1-4.2,24.7c0,11.6,1.4,19.8,4.2,24.7c2.8,4.9,7.4,7.4,13.8,7.4c6.4,0,11-2.4,13.8-7.4c2.8-4.9,4.2-13.2,4.2-24.7 c0-11.5-1.4-19.8-4.2-24.7C277.1,32.8,272.6,30.3,266.2,30.3L266.2,30.3z M266.2,95.8c-2.8,0-5.5-0.5-8.2-1.5 c-2.6-1-5.1-2.4-7.3-4.4c-4.1-3.5-7.3-7.6-9.5-12.5c-2.3-4.9-3.4-9.9-3.4-15.1c0-5.1,1.1-10.1,3.5-15c2.3-4.9,5.5-9.1,9.7-12.7 c2.2-1.9,4.5-3.3,7.1-4.2c2.6-0.9,5.3-1.4,8.2-1.4c2.9,0,5.7,0.5,8.3,1.4c2.6,0.9,4.9,2.4,7.1,4.2c4.1,3.6,7.4,7.8,9.7,12.7 c2.3,4.9,3.5,9.9,3.5,15c0,5.2-1.1,10.2-3.4,15c-2.3,4.8-5.5,9-9.6,12.6c-2.2,1.9-4.7,3.4-7.3,4.4C271.7,95.3,269,95.8,266.2,95.8 L266.2,95.8z M308.6,59.9h5.8c6.8,0,11.8-1.2,15.2-3.6c3.4-2.4,5.1-5.9,5.1-10.7c0-4.5-1.5-7.8-4.4-9.9c-2.9-2.1-7.5-3.2-13.6-3.2 c-3.7,0-5.9,0.3-6.7,1c-0.8,0.7-1.2,2.7-1.2,6.1L308.6,59.9L308.6,59.9z M288.1,93.6v-1.3c5-0.1,8.3-0.8,9.9-2.1 c1.6-1.4,2.3-4.2,2.3-8.6V43.2c0-4.4-0.8-7.2-2.3-8.6c-1.5-1.4-4.9-2.1-9.9-2.2v-1.3h28.2c8.9,0,15.7,1.2,20.4,3.7 c4.7,2.5,7.1,6,7.1,10.7c0,4.2-1.9,7.6-5.6,10c-3.8,2.5-9.3,4.1-16.5,4.7v0.6c4.1,0.8,7.5,2.4,10.1,4.5c2.6,2.2,4.6,5.2,5.9,9.1 c0.8,2.1,1.3,4.7,1.5,7.8c0.2,3.1,0.5,4.9,0.6,5.5c0.4,1.3,0.9,2.2,1.5,2.8c0.6,0.5,1.4,0.8,2.4,0.8c1.8,0,3.2-1.2,4.1-3.7 c1-2.4,1.4-6,1.4-10.5v-2.4l1.2,0.1c0,0.4,0.1,0.8,0.1,1.2c0,0.4,0,1,0,1.8c0,5.7-0.9,10.1-2.7,13c-1.8,3-4.4,4.4-7.8,4.4 c-3.4,0-6-1.3-7.8-3.9c-1.8-2.6-2.9-6.6-3.2-11.9c-0.1-0.8-0.1-1.9-0.1-3.2c-0.2-4.1-0.5-6.7-1-7.8c-0.4-1-1-1.9-1.6-2.7 c-0.6-0.8-1.4-1.5-2.3-2.2c-1-0.8-2.4-1.4-4.2-1.8c-1.8-0.4-3.9-0.6-6.3-0.6h-4.8v20.4c0,4.4,0.8,7.4,2.4,8.7c1.6,1.4,5.1,2,10.6,2 v1.3L288.1,93.6L288.1,93.6z M186.2,107.7h3.6v14.1h8.6v3.1h-12.2V107.7L186.2,107.7z M201.1,112.2h3.4v12.7h-3.4V112.2L201.1,112.2 z M204.5,110.6h-3.4v-3.1h3.4V110.6L204.5,110.6z M216,112.2h3.6l-4.6,12.7h-3.5l-4.6-12.7h3.7l2.6,9.4L216,112.2L216,112.2z M225.3,115.3c-0.5,0.5-0.8,1.1-0.9,2h5.7c-0.1-0.9-0.4-1.6-0.9-2c-0.5-0.5-1.2-0.7-2-0.7C226.4,114.6,225.7,114.8,225.3,115.3 L225.3,115.3z M230.3,112.4c0.9,0.4,1.6,1,2.2,1.9c0.5,0.8,0.9,1.6,1,2.6c0.1,0.6,0.1,1.4,0.1,2.5h-9.3c0,1.3,0.5,2.2,1.3,2.7 c0.5,0.3,1.1,0.5,1.8,0.5c0.8,0,1.4-0.2,1.9-0.6c0.3-0.2,0.5-0.5,0.7-0.9h3.4c-0.1,0.8-0.5,1.5-1.2,2.3c-1.1,1.2-2.7,1.9-4.8,1.9 c-1.7,0-3.2-0.5-4.5-1.6c-1.3-1-1.9-2.7-1.9-5.1c0-2.2,0.6-3.9,1.8-5.1c1.2-1.2,2.7-1.8,4.5-1.8C228.4,111.8,229.4,112,230.3,112.4 L230.3,112.4z M251,121.4c0.5-0.7,0.7-1.6,0.7-2.7c0-0.9-0.1-1.6-0.4-2.2c-0.5-1.1-1.3-1.7-2.5-1.7c-1.2,0-2,0.6-2.5,1.6 c-0.2,0.6-0.4,1.3-0.4,2.3c0,1.1,0.2,2,0.7,2.7c0.5,0.7,1.2,1.1,2.2,1.1C249.8,122.5,250.5,122.1,251,121.4L251,121.4z M253.7,113.7 c1,1.2,1.4,2.8,1.4,4.7c0,2-0.5,3.6-1.4,4.9s-2.3,1.9-3.9,1.9c-1.1,0-1.9-0.2-2.5-0.6c-0.4-0.3-0.8-0.7-1.3-1.3v1.6h-3.3v-17.2h3.3 v6.1c0.4-0.6,0.9-1.1,1.4-1.4c0.6-0.4,1.4-0.6,2.3-0.6C251.5,111.9,252.8,112.5,253.7,113.7L253.7,113.7z M261.3,115.3 c-0.5,0.5-0.8,1.1-0.9,2h5.7c-0.1-0.9-0.4-1.6-0.9-2c-0.5-0.5-1.2-0.7-2-0.7C262.4,114.6,261.8,114.8,261.3,115.3L261.3,115.3z M266.3,112.4c0.9,0.4,1.6,1,2.2,1.9c0.5,0.8,0.9,1.6,1,2.6c0.1,0.6,0.1,1.4,0.1,2.5h-9.3c0,1.3,0.5,2.2,1.3,2.7 c0.5,0.3,1.1,0.5,1.8,0.5c0.8,0,1.4-0.2,1.9-0.6c0.3-0.2,0.5-0.5,0.7-0.9h3.4c-0.1,0.8-0.5,1.5-1.2,2.3c-1.1,1.2-2.7,1.9-4.8,1.9 c-1.7,0-3.2-0.5-4.5-1.6c-1.3-1-1.9-2.7-1.9-5.1c0-2.2,0.6-3.9,1.8-5.1c1.2-1.2,2.7-1.8,4.6-1.8C264.4,111.8,265.4,112,266.3,112.4 L266.3,112.4z M278.8,118.7c-0.2,0.1-0.4,0.2-0.6,0.3c-0.2,0.1-0.5,0.2-0.9,0.2l-0.8,0.1c-0.7,0.1-1.2,0.3-1.5,0.5 c-0.5,0.3-0.8,0.8-0.8,1.4c0,0.6,0.2,1,0.5,1.2s0.7,0.4,1.2,0.4c0.7,0,1.4-0.2,2-0.6c0.6-0.4,0.9-1.2,1-2.3L278.8,118.7L278.8,118.7 z M276.8,117.1c0.6-0.1,1.1-0.2,1.3-0.3c0.5-0.2,0.7-0.5,0.7-0.9c0-0.5-0.2-0.9-0.5-1.1c-0.4-0.2-0.9-0.3-1.6-0.3 c-0.8,0-1.4,0.2-1.7,0.6c-0.2,0.3-0.4,0.7-0.5,1.2h-3.2c0.1-1.1,0.4-2,0.9-2.8c0.9-1.1,2.4-1.7,4.6-1.7c1.4,0,2.6,0.3,3.7,0.8 s1.6,1.6,1.6,3.1v5.8c0,0.4,0,0.9,0,1.5c0,0.4,0.1,0.7,0.2,0.9c0.1,0.2,0.3,0.3,0.5,0.4v0.5h-3.6c-0.1-0.3-0.2-0.5-0.2-0.7 c0-0.2-0.1-0.5-0.1-0.8c-0.5,0.5-1,0.9-1.6,1.3c-0.7,0.4-1.5,0.6-2.5,0.6c-1.2,0-2.1-0.3-2.9-1s-1.1-1.6-1.1-2.8 c0-1.6,0.6-2.7,1.8-3.4c0.7-0.4,1.6-0.6,2.9-0.8L276.8,117.1L276.8,117.1z M288.9,112.2v7.7c0,0.7,0.1,1.3,0.3,1.6 c0.3,0.6,0.9,1,1.8,1c1.1,0,1.9-0.5,2.3-1.4c0.2-0.5,0.3-1.2,0.3-2v-6.9h3.4v12.7h-3.2v-1.8c0,0-0.1,0.2-0.2,0.4 c-0.1,0.2-0.3,0.4-0.4,0.5c-0.5,0.5-1,0.8-1.5,1c-0.5,0.2-1.1,0.3-1.7,0.3c-1.9,0-3.1-0.7-3.8-2c-0.4-0.8-0.5-1.9-0.5-3.3v-7.7 L288.9,112.2L288.9,112.2z M299.3,114.7v-2.4h1.8v-3.6h3.3v3.6h2.1v2.4h-2.1v6.7c0,0.5,0.1,0.9,0.2,1c0.1,0.1,0.5,0.2,1.2,0.2 c0.1,0,0.2,0,0.3,0c0.1,0,0.2,0,0.3,0v2.5l-1.6,0.1c-1.6,0.1-2.6-0.2-3.2-0.8c-0.4-0.4-0.6-1-0.6-1.8v-7.8L299.3,114.7L299.3,114.7z M309.1,112.2h3.4v12.7h-3.4V112.2L309.1,112.2z M312.5,110.6h-3.4v-3.1h3.4V110.6L312.5,110.6z M321.5,107.5c0.2,0,0.4,0,0.7,0.1 v2.7c-0.2,0-0.5,0-0.9-0.1c-0.4,0-0.8,0.1-0.9,0.3c-0.2,0.2-0.3,0.4-0.3,0.7v1.1h2.2v2.4h-2.2v10.3h-3.3v-10.3h-1.9v-2.4h1.8v-0.8 c0-1.4,0.2-2.3,0.7-2.8c0.5-0.8,1.6-1.1,3.5-1.1C321.1,107.5,321.3,107.5,321.5,107.5L321.5,107.5z M328,112.2v7.7 c0,0.7,0.1,1.3,0.3,1.6c0.3,0.6,0.9,1,1.8,1c1.1,0,1.9-0.5,2.3-1.4c0.2-0.5,0.3-1.2,0.3-2v-6.9h3.4v12.7h-3.2v-1.8 c0,0-0.1,0.2-0.2,0.4c-0.1,0.2-0.3,0.4-0.4,0.5c-0.5,0.5-1,0.8-1.5,1c-0.5,0.2-1.1,0.3-1.7,0.3c-1.9,0-3.1-0.7-3.8-2 c-0.4-0.8-0.5-1.9-0.5-3.3v-7.7L328,112.2L328,112.2z M343.2,124.9h-3.3v-17.2h3.3V124.9L343.2,124.9z"/>
</svg>