<svg width="68" height="68" viewBox="0 0 68 68" fill="none" xmlns="http://www.w3.org/2000/svg">
<path fill-rule="evenodd" clip-rule="evenodd" d="M67.8119 39.5971C67.8119 38.1746 66.6575 37.0201 65.235 37.0201H39.597C38.1745 37.0201 37.02 38.1746 37.02 39.5971V65.2351C37.02 66.6576 38.1745 67.8121 39.597 67.8121H65.235C66.6575 67.8121 67.8119 66.6576 67.8119 65.2351V39.5971V39.5971Z" fill="#244D4D"/>
<path fill-rule="evenodd" clip-rule="evenodd" d="M31.6443 39.5971C31.6443 38.1746 30.4899 37.0201 29.0674 37.0201H3.42936C2.00431 37.0201 0.852417 38.1746 0.852417 39.5971V65.2351C0.852417 66.6576 2.00431 67.8121 3.42936 67.8121H29.0674C30.4899 67.8121 31.6443 66.6576 31.6443 65.2351V39.5971V39.5971Z" fill="#244D4D"/>
<path fill-rule="evenodd" clip-rule="evenodd" d="M67.8119 3.38908C67.8119 1.9666 66.6575 0.812134 65.235 0.812134H39.597C38.1745 0.812134 37.02 1.9666 37.02 3.38908V29.0271C37.02 30.4496 38.1745 31.604 39.597 31.604H65.235C66.6575 31.604 67.8119 30.4496 67.8119 29.0271V3.38908Z" fill="#244D4D"/>
<path fill-rule="evenodd" clip-rule="evenodd" d="M3.38908 14.8897H29.0271C30.4496 14.8897 31.604 13.7352 31.604 12.3127C31.604 10.8903 30.4496 9.73578 29.0271 9.73578H3.38908C1.9666 9.73578 0.812134 10.8903 0.812134 12.3127C0.812134 13.7352 1.9666 14.8897 3.38908 14.8897Z" fill="#CDD6DF"/>
<path fill-rule="evenodd" clip-rule="evenodd" d="M3.38908 22.681H29.0271C30.4496 22.681 31.604 21.5265 31.604 20.104C31.604 18.6816 30.4496 17.5271 29.0271 17.5271H3.38908C1.9666 17.5271 0.812134 18.6816 0.812134 20.104C0.812134 21.5265 1.9666 22.681 3.38908 22.681Z" fill="#CDD6DF"/>
</svg>
